# xmcd
#
# Track frame offsets:
#	150
#	15130
#	26110
#	37947
#	53505
#	65752
#	78747
#	92170
#	111687
#	126485
#	143065
#	161277
#	173965
#	185882
#	200134
#	215320
#	228760
#	243634
#	260430
#	274955
#
# Disc length: 3835 seconds
#
# Revision: 0
# Processed by: cddbd v1.5.1PL0 Copyright (c) Steve Scherf et al.
# Submitted via: dBpowerAMP V4.0
#
DISCID=270ef914
DTITLE=varios - los grandes exitos de las decadas 1900´010´s vol 2
DYEAR=1900
DGENRE=National Folk
TTITLE0=corrido de cananea
TTITLE1=la adelita
TTITLE2=la valentina
TTITLE3=la rielera
TTITLE4=panfilo natera
TTITLE5=corrido villista
TTITLE6=danzas calabaceadas
TTITLE7=valente quintero
TTITLE8=rosita alvirez
TTITLE9=valentin de la sierra
TTITLE10=la marcha de zacatecas
TTITLE11=la cucaracha
TTITLE12=la borrachita
TTITLE13=de torreon a lerdo
TTITLE14=carabina 30-30
TTITLE15=la pajarera
TTITLE16=el venadito
TTITLE17=la barca de oro
TTITLE18=cancion mixteca
TTITLE19=adios mariquita linda
EXTD=
EXTT0=
EXTT1=
EXTT2=
EXTT3=
EXTT4=
EXTT5=
EXTT6=
EXTT7=
EXTT8=
EXTT9=
EXTT10=
EXTT11=
EXTT12=
EXTT13=
EXTT14=
EXTT15=
EXTT16=
EXTT17=
EXTT18=
EXTT19=
PLAYORDER=
